{
  "accessors": [
    {
      "bufferView": 2,
      "componentType": 5126,
      "count": 3143,
      "max": [
        366.1300048828125,
        -306.6130065917969,
        5.9741997718811035
      ],
      "min": [
        351.27301025390625,
        -313.2749938964844,
        2.05826997756958
      ],
      "type": "VEC3"
    },
    {
      "bufferView": 2,
      "byteOffset": 37716,
      "componentType": 5126,
      "count": 3143,
      "max": [
        0.9991950392723083,
        0.999845027923584,
        1.0
      ],
      "min": [
        -0.9995972514152527,
        -0.9993805885314941,
        -0.9984844326972961
      ],
      "type": "VEC3"
    },
    {
      "bufferView": 1,
      "componentType": 5126,
      "count": 3143,
      "max": [
        5.943630218505859,
        3.772550106048584
      ],
      "min": [
        4.11745023727417,
        1.9460500478744507
      ],
      "type": "VEC2"
    },
    {
      "bufferView": 0,
      "componentType": 5125,
      "count": 8268,
      "type": "SCALAR"
    },
    {
      "bufferView": 2,
      "byteOffset": 75432,
      "componentType": 5126,
      "count": 3595,
      "max": [
        366.35198974609375,
        -306.6130065917969,
        5.790309906005859
      ],
      "min": [
        351.1319885253906,
        -313.2720031738281,
        1.784119963645935
      ],
      "type": "VEC3"
    },
    {
      "bufferView": 2,
      "byteOffset": 118572,
      "componentType": 5126,
      "count": 3595,
      "max": [
        0.9999690055847168,
        1.0,
        1.0
      ],
      "min": [
        -0.999845027923584,
        -1.0,
        -1.0
      ],
      "type": "VEC3"
    },
    {
      "bufferView": 1,
      "byteOffset": 25144,
      "componentType": 5126,
      "count": 3595,
      "max": [
        0.9955000281333923,
        0.9919999837875366
      ],
      "min": [
        0.006599999964237213,
        0.008000019937753677
      ],
      "type": "VEC2"
    },
    {
      "bufferView": 0,
      "byteOffset": 33072,
      "componentType": 5125,
      "count": 9759,
      "type": "SCALAR"
    },
    {
      "bufferView": 2,
      "byteOffset": 161712,
      "componentType": 5126,
      "count": 63,
      "max": [
        361.6369934082031,
        -307.1990051269531,
        5.730879783630371
      ],
      "min": [
        352.072998046875,
        -312.7619934082031,
        4.325679779052734
      ],
      "type": "VEC3"
    },
    {
      "bufferView": 2,
      "byteOffset": 162468,
      "componentType": 5126,
      "count": 63,
      "max": [
        0.5919287204742432,
        0.9723397493362427,
        0.9804600477218628
      ],
      "min": [
        -0.45002028346061707,
        -0.974085807800293,
        0.2120988965034485
      ],
      "type": "VEC3"
    },
    {
      "bufferView": 1,
      "byteOffset": 53904,
      "componentType": 5126,
      "count": 63,
      "max": [
        1.2903000116348267,
        1.378100037574768
      ],
      "min": [
        0.8677999973297119,
        1.1279000043869019
      ],
      "type": "VEC2"
    },
    {
      "bufferView": 0,
      "byteOffset": 72108,
      "componentType": 5125,
      "count": 138,
      "type": "SCALAR"
    },
    {
      "bufferView": 2,
      "byteOffset": 163224,
      "componentType": 5126,
      "count": 1648,
      "max": [
        364.4360046386719,
        -306.5589904785156,
        3.1298699378967285
      ],
      "min": [
        352.91400146484375,
        -313.14599609375,
        1.0681699514389038
      ],
      "type": "VEC3"
    },
    {
      "bufferView": 2,
      "byteOffset": 183000,
      "componentType": 5126,
      "count": 1648,
      "max": [
        0.996269941329956,
        0.9992259740829468,
        1.0
      ],
      "min": [
        -0.996269941329956,
        -0.9992259740829468,
        -1.0
      ],
      "type": "VEC3"
    },
    {
      "bufferView": 1,
      "byteOffset": 54408,
      "componentType": 5126,
      "count": 1648,
      "max": [
        0.9971500039100647,
        1.0
      ],
      "min": [
        0.01013999991118908,
        0.0
      ],
      "type": "VEC2"
    },
    {
      "bufferView": 0,
      "byteOffset": 72660,
      "componentType": 5125,
      "count": 4344,
      "type": "SCALAR"
    }
  ],
  "asset": {
    "extras": {
      "author": "Mona x Supercars (https://sketchfab.com/Car2022)",
      "license": "CC-BY-4.0 (http://creativecommons.org/licenses/by/4.0/)",
      "source": "https://sketchfab.com/3d-models/azlk-moskvich-2141-8b2e431a32334db98613ff43dd620fec",
      "title": "AZLK Moskvich 2141"
    },
    "generator": "Sketchfab-16.62.0",
    "version": "2.0"
  },
  "bufferViews": [
    {
      "buffer": 0,
      "byteLength": 90036,
      "name": "floatBufferViews",
      "target": 34963
    },
    {
      "buffer": 0,
      "byteLength": 67592,
      "byteOffset": 90036,
      "byteStride": 8,
      "name": "floatBufferViews",
      "target": 34962
    },
    {
      "buffer": 0,
      "byteLength": 202776,
      "byteOffset": 157628,
      "byteStride": 12,
      "name": "floatBufferViews",
      "target": 34962
    }
  ],
  "buffers": [
    {
      "byteLength": 360404,
      "uri": "scene.bin"
    }
  ],
  "images": [
    {
      "uri": "textures/Body1Mtl_metallicRoughness.png"
    },
    {
      "uri": "textures/Body1Mtl_emissive.png"
    },
    {
      "uri": "textures/Details1Mtl_baseColor.png"
    },
    {
      "uri": "textures/Glass1Mtl_emissive.png"
    },
    {
      "uri": "textures/RlWheel1Mtl_baseColor.png"
    }
  ],
  "materials": [
    {
      "doubleSided": true,
      "emissiveTexture": {
        "index": 1
      },
      "name": "Body1Mtl",
      "pbrMetallicRoughness": {
        "metallicFactor": 0.05,
        "metallicRoughnessTexture": {
          "index": 0
        },
        "roughnessFactor": 0.0
      }
    },
    {
      "doubleSided": true,
      "emissiveTexture": {
        "index": 2
      },
      "name": "Details1Mtl",
      "pbrMetallicRoughness": {
        "baseColorTexture": {
          "index": 2
        },
        "metallicFactor": 0.05,
        "roughnessFactor": 0.3429878048780488
      }
    },
    {
      "alphaMode": "BLEND",
      "doubleSided": true,
      "emissiveTexture": {
        "index": 3
      },
      "name": "Glass1Mtl",
      "pbrMetallicRoughness": {
        "baseColorFactor": [
          0.7579697625090448,
          1.0,
          0.9054712840203811,
          0.552941
        ],
        "roughnessFactor": 0.0
      }
    },
    {
      "doubleSided": true,
      "emissiveTexture": {
        "index": 4
      },
      "name": "RlWheel1Mtl",
      "pbrMetallicRoughness": {
        "baseColorTexture": {
          "index": 4
        },
        "metallicFactor": 0.05,
        "roughnessFactor": 0.36737804878048785
      }
    }
  ],
  "meshes": [
    {
      "name": "Object_0",
      "primitives": [
        {
          "attributes": {
            "NORMAL": 1,
            "POSITION": 0,
            "TEXCOORD_0": 2
          },
          "indices": 3,
          "material": 0,
          "mode": 4
        }
      ]
    },
    {
      "name": "Object_1",
      "primitives": [
        {
          "attributes": {
            "NORMAL": 5,
            "POSITION": 4,
            "TEXCOORD_0": 6
          },
          "indices": 7,
          "material": 1,
          "mode": 4
        }
      ]
    },
    {
      "name": "Object_2",
      "primitives": [
        {
          "attributes": {
            "NORMAL": 9,
            "POSITION": 8,
            "TEXCOORD_0": 10
          },
          "indices": 11,
          "material": 2,
          "mode": 4
        }
      ]
    },
    {
      "name": "Object_3",
      "primitives": [
        {
          "attributes": {
            "NORMAL": 13,
            "POSITION": 12,
            "TEXCOORD_0": 14
          },
          "indices": 15,
          "material": 3,
          "mode": 4
        }
      ]
    }
  ],
  "nodes": [
    {
      "children": [
        1
      ],
      "matrix": [
        0.3126544654369354,
        -8.856779847024584e-17,
        -2.9499002730608296e-32,
        0.0,
        1.5256215282642912e-32,
        1.5799103572623702e-16,
        -0.3126544654369354,
        0.0,
        8.856779847024584e-17,
        0.3126544654369354,
        1.5799103572623702e-16,
        0.0,
        0.0,
        0.0,
        0.0,
        1.0
      ],
      "name": "Sketchfab_model"
    },
    {
      "children": [
        2,
        3,
        4,
        5
      ],
      "name": "1984 AZLK Moskvich 2141.obj.cleaner.materialmerger.gles"
    },
    {
      "mesh": 0,
      "name": "Object_2"
    },
    {
      "mesh": 1,
      "name": "Object_3"
    },
    {
      "mesh": 2,
      "name": "Object_4"
    },
    {
      "mesh": 3,
      "name": "Object_5"
    }
  ],
  "samplers": [
    {
      "magFilter": 9729,
      "minFilter": 9987,
      "wrapS": 10497,
      "wrapT": 10497
    }
  ],
  "scene": 0,
  "scenes": [
    {
      "name": "Sketchfab_Scene",
      "nodes": [
        0
      ]
    }
  ],
  "textures": [
    {
      "sampler": 0,
      "source": 0
    },
    {
      "sampler": 0,
      "source": 1
    },
    {
      "sampler": 0,
      "source": 2
    },
    {
      "sampler": 0,
      "source": 3
    },
    {
      "sampler": 0,
      "source": 4
    }
  ]
}
